<?xml version="1.0" encoding="utf-8" standalone="no"?>
<!DOCTYPE svg PUBLIC "-//W3C//DTD SVG 1.1//EN"
  "http://www.w3.org/Graphics/SVG/1.1/DTD/svg11.dtd">
<svg xmlns:xlink="http://www.w3.org/1999/xlink" width="423.790312pt" height="317.490125pt" viewBox="0 0 423.790312 317.490125" xmlns="http://www.w3.org/2000/svg" version="1.1">
 <metadata>
  <rdf:RDF xmlns:dc="http://purl.org/dc/elements/1.1/" xmlns:cc="http://creativecommons.org/ns#" xmlns:rdf="http://www.w3.org/1999/02/22-rdf-syntax-ns#">
   <cc:Work>
    <dc:type rdf:resource="http://purl.org/dc/dcmitype/StillImage"/>
    <dc:date>2024-11-19T02:30:42.698074</dc:date>
    <dc:format>image/svg+xml</dc:format>
    <dc:creator>
     <cc:Agent>
      <dc:title>Matplotlib v3.9.2, https://matplotlib.org/</dc:title>
     </cc:Agent>
    </dc:creator>
   </cc:Work>
  </rdf:RDF>
 </metadata>
 <defs>
  <style type="text/css">*{stroke-linejoin: round; stroke-linecap: butt}</style>
 </defs>
 <g id="figure_1">
  <g id="patch_1">
   <path d="M 0 317.490125 
L 423.790312 317.490125 
L 423.790312 0 
L 0 0 
L 0 317.490125 
z
" style="fill: none"/>
  </g>
  <g id="axes_1">
   <g id="patch_2">
    <path d="M 42.620313 273.312 
L 399.740313 273.312 
L 399.740313 7.2 
L 42.620313 7.2 
L 42.620313 273.312 
z
" style="fill: none"/>
   </g>
   <g id="matplotlib.axis_1">
    <g id="xtick_1">
     <g id="line2d_1">
      <path d="M 42.620313 273.312 
L 42.620313 7.2 
" clip-path="url(#pba085debe3)" style="fill: none; stroke: #b0b0b0; stroke-width: 0.8; stroke-linecap: square"/>
     </g>
     <g id="line2d_2">
      <defs>
       <path id="ma014ed9640" d="M 0 0 
L 0 3.5 
" style="stroke: #000000; stroke-width: 0.8"/>
      </defs>
      <g>
       <use xlink:href="#ma014ed9640" x="42.620313" y="273.312" style="stroke: #000000; stroke-width: 0.8"/>
      </g>
     </g>
     <g id="text_1">
      <!-- $2 - \sqrt{3}$ -->
      <g transform="translate(25.770313 289.632312) scale(0.1 -0.1)">
       <defs>
        <path id="DejaVuSans-32" d="M 1228 531 
L 3431 531 
L 3431 0 
L 469 0 
L 469 531 
Q 828 903 1448 1529 
Q 2069 2156 2228 2338 
Q 2531 2678 2651 2914 
Q 2772 3150 2772 3378 
Q 2772 3750 2511 3984 
Q 2250 4219 1831 4219 
Q 1534 4219 1204 4116 
Q 875 4013 500 3803 
L 500 4441 
Q 881 4594 1212 4672 
Q 1544 4750 1819 4750 
Q 2544 4750 2975 4387 
Q 3406 4025 3406 3419 
Q 3406 3131 3298 2873 
Q 3191 2616 2906 2266 
Q 2828 2175 2409 1742 
Q 1991 1309 1228 531 
z
" transform="scale(0.015625)"/>
        <path id="DejaVuSans-2212" d="M 678 2272 
L 4684 2272 
L 4684 1741 
L 678 1741 
L 678 2272 
z
" transform="scale(0.015625)"/>
        <path id="STIXSizeOneSym-Regular-221a" d="M 6970 9933 
L 3373 -1888 
L 3104 -1888 
L 1626 2918 
Q 1555 3149 1465 3251 
Q 1376 3354 1229 3354 
Q 1011 3354 794 3181 
L 717 3309 
L 1766 4115 
L 1926 4115 
L 3379 -602 
L 3405 -602 
L 6605 9933 
L 6970 9933 
z
" transform="scale(0.015625)"/>
        <path id="DejaVuSans-33" d="M 2597 2516 
Q 3050 2419 3304 2112 
Q 3559 1806 3559 1356 
Q 3559 666 3084 287 
Q 2609 -91 1734 -91 
Q 1441 -91 1130 -33 
Q 819 25 488 141 
L 488 750 
Q 750 597 1062 519 
Q 1375 441 1716 441 
Q 2309 441 2620 675 
Q 2931 909 2931 1356 
Q 2931 1769 2642 2001 
Q 2353 2234 1838 2234 
L 1294 2234 
L 1294 2753 
L 1863 2753 
Q 2328 2753 2575 2939 
Q 2822 3125 2822 3475 
Q 2822 3834 2567 4026 
Q 2313 4219 1838 4219 
Q 1578 4219 1281 4162 
Q 984 4106 628 3988 
L 628 4550 
Q 988 4650 1302 4700 
Q 1616 4750 1894 4750 
Q 2613 4750 3031 4423 
Q 3450 4097 3450 3541 
Q 3450 3153 3228 2886 
Q 3006 2619 2597 2516 
z
" transform="scale(0.015625)"/>
       </defs>
       <use xlink:href="#DejaVuSans-32" transform="translate(0 0.296875)"/>
       <use xlink:href="#DejaVuSans-2212" transform="translate(83.105469 0.296875)"/>
       <use xlink:href="#STIXSizeOneSym-Regular-221a" transform="translate(186.376953 15.984375) scale(0.578716)"/>
       <use xlink:href="#DejaVuSans-33" transform="translate(260.050827 0.53125)"/>
       <path d="M 247.550827 99.5 
L 247.550827 105.75 
L 336.173874 105.75 
L 336.173874 99.5 
L 247.550827 99.5 
z
"/>
      </g>
     </g>
    </g>
    <g id="xtick_2">
     <g id="line2d_3">
      <path d="M 102.140312 273.312 
L 102.140312 7.2 
" clip-path="url(#pba085debe3)" style="fill: none; stroke: #b0b0b0; stroke-width: 0.8; stroke-linecap: square"/>
     </g>
     <g id="line2d_4">
      <g>
       <use xlink:href="#ma014ed9640" x="102.140312" y="273.312" style="stroke: #000000; stroke-width: 0.8"/>
      </g>
     </g>
     <g id="text_2">
      <!-- $2 - \frac{2}{\sqrt{3}}$ -->
      <g transform="translate(86.940312 289.912) scale(0.1 -0.1)">
       <use xlink:href="#DejaVuSans-32" transform="translate(0 0.25)"/>
       <use xlink:href="#DejaVuSans-2212" transform="translate(83.105469 0.25)"/>
       <use xlink:href="#DejaVuSans-32" transform="translate(216.376953 44.046875) scale(0.7)"/>
       <use xlink:href="#STIXSizeOneSym-Regular-221a" transform="translate(186.376953 -54.414062) scale(0.405101)"/>
       <use xlink:href="#DejaVuSans-33" transform="translate(237.948665 -65.53125) scale(0.7)"/>
       <path d="M 186.376953 19.046875 
L 186.376953 25.296875 
L 291.234798 25.296875 
L 291.234798 19.046875 
L 186.376953 19.046875 
z
"/>
       <path d="M 229.198665 4.046875 
L 229.198665 8.421875 
L 291.234798 8.421875 
L 291.234798 4.046875 
L 229.198665 4.046875 
z
"/>
      </g>
     </g>
    </g>
    <g id="xtick_3">
     <g id="line2d_5">
      <path d="M 161.660313 273.312 
L 161.660313 7.2 
" clip-path="url(#pba085debe3)" style="fill: none; stroke: #b0b0b0; stroke-width: 0.8; stroke-linecap: square"/>
     </g>
     <g id="line2d_6">
      <g>
       <use xlink:href="#ma014ed9640" x="161.660313" y="273.312" style="stroke: #000000; stroke-width: 0.8"/>
      </g>
     </g>
     <g id="text_3">
      <!-- $2 - \frac{1}{\sqrt{3}}$ -->
      <g transform="translate(146.460313 289.812) scale(0.1 -0.1)">
       <defs>
        <path id="DejaVuSans-31" d="M 794 531 
L 1825 531 
L 1825 4091 
L 703 3866 
L 703 4441 
L 1819 4666 
L 2450 4666 
L 2450 531 
L 3481 531 
L 3481 0 
L 794 0 
L 794 531 
z
" transform="scale(0.015625)"/>
       </defs>
       <use xlink:href="#DejaVuSans-32" transform="translate(0 0.16875)"/>
       <use xlink:href="#DejaVuSans-2212" transform="translate(83.105469 0.16875)"/>
       <use xlink:href="#DejaVuSans-31" transform="translate(216.376953 43.965625) scale(0.7)"/>
       <use xlink:href="#STIXSizeOneSym-Regular-221a" transform="translate(186.376953 -54.495312) scale(0.405101)"/>
       <use xlink:href="#DejaVuSans-33" transform="translate(237.948665 -65.6125) scale(0.7)"/>
       <path d="M 186.376953 18.965625 
L 186.376953 25.215625 
L 291.234798 25.215625 
L 291.234798 18.965625 
L 186.376953 18.965625 
z
"/>
       <path d="M 229.198665 3.965625 
L 229.198665 8.340625 
L 291.234798 8.340625 
L 291.234798 3.965625 
L 229.198665 3.965625 
z
"/>
      </g>
     </g>
    </g>
    <g id="xtick_4">
     <g id="line2d_7">
      <path d="M 221.180313 273.312 
L 221.180313 7.2 
" clip-path="url(#pba085debe3)" style="fill: none; stroke: #b0b0b0; stroke-width: 0.8; stroke-linecap: square"/>
     </g>
     <g id="line2d_8">
      <g>
       <use xlink:href="#ma014ed9640" x="221.180313" y="273.312" style="stroke: #000000; stroke-width: 0.8"/>
      </g>
     </g>
     <g id="text_4">
      <!-- $2$ -->
      <g transform="translate(217.980313 287.910438) scale(0.1 -0.1)">
       <use xlink:href="#DejaVuSans-32" transform="translate(0 0.78125)"/>
      </g>
     </g>
    </g>
    <g id="xtick_5">
     <g id="line2d_9">
      <path d="M 280.700312 273.312 
L 280.700312 7.2 
" clip-path="url(#pba085debe3)" style="fill: none; stroke: #b0b0b0; stroke-width: 0.8; stroke-linecap: square"/>
     </g>
     <g id="line2d_10">
      <g>
       <use xlink:href="#ma014ed9640" x="280.700312" y="273.312" style="stroke: #000000; stroke-width: 0.8"/>
      </g>
     </g>
     <g id="text_5">
      <!-- $2 + \frac{1}{\sqrt{3}}$ -->
      <g transform="translate(265.500313 289.812) scale(0.1 -0.1)">
       <defs>
        <path id="DejaVuSans-2b" d="M 2944 4013 
L 2944 2272 
L 4684 2272 
L 4684 1741 
L 2944 1741 
L 2944 0 
L 2419 0 
L 2419 1741 
L 678 1741 
L 678 2272 
L 2419 2272 
L 2419 4013 
L 2944 4013 
z
" transform="scale(0.015625)"/>
       </defs>
       <use xlink:href="#DejaVuSans-32" transform="translate(0 0.16875)"/>
       <use xlink:href="#DejaVuSans-2b" transform="translate(83.105469 0.16875)"/>
       <use xlink:href="#DejaVuSans-31" transform="translate(216.376953 43.965625) scale(0.7)"/>
       <use xlink:href="#STIXSizeOneSym-Regular-221a" transform="translate(186.376953 -54.495312) scale(0.405101)"/>
       <use xlink:href="#DejaVuSans-33" transform="translate(237.948665 -65.6125) scale(0.7)"/>
       <path d="M 186.376953 18.965625 
L 186.376953 25.215625 
L 291.234798 25.215625 
L 291.234798 18.965625 
L 186.376953 18.965625 
z
"/>
       <path d="M 229.198665 3.965625 
L 229.198665 8.340625 
L 291.234798 8.340625 
L 291.234798 3.965625 
L 229.198665 3.965625 
z
"/>
      </g>
     </g>
    </g>
    <g id="xtick_6">
     <g id="line2d_11">
      <path d="M 340.220313 273.312 
L 340.220313 7.2 
" clip-path="url(#pba085debe3)" style="fill: none; stroke: #b0b0b0; stroke-width: 0.8; stroke-linecap: square"/>
     </g>
     <g id="line2d_12">
      <g>
       <use xlink:href="#ma014ed9640" x="340.220313" y="273.312" style="stroke: #000000; stroke-width: 0.8"/>
      </g>
     </g>
     <g id="text_6">
      <!-- $2 + \frac{1}{\sqrt{3}}$ -->
      <g transform="translate(325.020313 289.812) scale(0.1 -0.1)">
       <use xlink:href="#DejaVuSans-32" transform="translate(0 0.16875)"/>
       <use xlink:href="#DejaVuSans-2b" transform="translate(83.105469 0.16875)"/>
       <use xlink:href="#DejaVuSans-31" transform="translate(216.376953 43.965625) scale(0.7)"/>
       <use xlink:href="#STIXSizeOneSym-Regular-221a" transform="translate(186.376953 -54.495312) scale(0.405101)"/>
       <use xlink:href="#DejaVuSans-33" transform="translate(237.948665 -65.6125) scale(0.7)"/>
       <path d="M 186.376953 18.965625 
L 186.376953 25.215625 
L 291.234798 25.215625 
L 291.234798 18.965625 
L 186.376953 18.965625 
z
"/>
       <path d="M 229.198665 3.965625 
L 229.198665 8.340625 
L 291.234798 8.340625 
L 291.234798 3.965625 
L 229.198665 3.965625 
z
"/>
      </g>
     </g>
    </g>
    <g id="xtick_7">
     <g id="line2d_13">
      <path d="M 399.740313 273.312 
L 399.740313 7.2 
" clip-path="url(#pba085debe3)" style="fill: none; stroke: #b0b0b0; stroke-width: 0.8; stroke-linecap: square"/>
     </g>
     <g id="line2d_14">
      <g>
       <use xlink:href="#ma014ed9640" x="399.740313" y="273.312" style="stroke: #000000; stroke-width: 0.8"/>
      </g>
     </g>
     <g id="text_7">
      <!-- $2 + \sqrt{3}$ -->
      <g transform="translate(382.890312 289.632312) scale(0.1 -0.1)">
       <use xlink:href="#DejaVuSans-32" transform="translate(0 0.296875)"/>
       <use xlink:href="#DejaVuSans-2b" transform="translate(83.105469 0.296875)"/>
       <use xlink:href="#STIXSizeOneSym-Regular-221a" transform="translate(186.376953 15.984375) scale(0.578716)"/>
       <use xlink:href="#DejaVuSans-33" transform="translate(260.050827 0.53125)"/>
       <path d="M 247.550827 99.5 
L 247.550827 105.75 
L 336.173874 105.75 
L 336.173874 99.5 
L 247.550827 99.5 
z
"/>
      </g>
     </g>
    </g>
    <g id="text_8">
     <!-- $x$ -->
     <g transform="translate(218.180313 308.210437) scale(0.1 -0.1)">
      <defs>
       <path id="DejaVuSans-Oblique-78" d="M 3841 3500 
L 2234 1784 
L 3219 0 
L 2559 0 
L 1819 1388 
L 531 0 
L -166 0 
L 1556 1844 
L 641 3500 
L 1300 3500 
L 1972 2234 
L 3144 3500 
L 3841 3500 
z
" transform="scale(0.015625)"/>
      </defs>
      <use xlink:href="#DejaVuSans-Oblique-78" transform="translate(0 0.3125)"/>
     </g>
    </g>
   </g>
   <g id="matplotlib.axis_2">
    <g id="ytick_1">
     <g id="line2d_15">
      <path d="M 42.620313 255.485876 
L 399.740313 255.485876 
" clip-path="url(#pba085debe3)" style="fill: none; stroke: #b0b0b0; stroke-width: 0.8; stroke-linecap: square"/>
     </g>
     <g id="line2d_16">
      <defs>
       <path id="m18ebcd77ee" d="M 0 0 
L -3.5 0 
" style="stroke: #000000; stroke-width: 0.8"/>
      </defs>
      <g>
       <use xlink:href="#m18ebcd77ee" x="42.620313" y="255.485876" style="stroke: #000000; stroke-width: 0.8"/>
      </g>
     </g>
     <g id="text_9">
      <!-- −3 -->
      <g transform="translate(20.878125 259.285095) scale(0.1 -0.1)">
       <use xlink:href="#DejaVuSans-2212"/>
       <use xlink:href="#DejaVuSans-33" x="83.789062"/>
      </g>
     </g>
    </g>
    <g id="ytick_2">
     <g id="line2d_17">
      <path d="M 42.620313 217.075917 
L 399.740313 217.075917 
" clip-path="url(#pba085debe3)" style="fill: none; stroke: #b0b0b0; stroke-width: 0.8; stroke-linecap: square"/>
     </g>
     <g id="line2d_18">
      <g>
       <use xlink:href="#m18ebcd77ee" x="42.620313" y="217.075917" style="stroke: #000000; stroke-width: 0.8"/>
      </g>
     </g>
     <g id="text_10">
      <!-- −2 -->
      <g transform="translate(20.878125 220.875136) scale(0.1 -0.1)">
       <use xlink:href="#DejaVuSans-2212"/>
       <use xlink:href="#DejaVuSans-32" x="83.789062"/>
      </g>
     </g>
    </g>
    <g id="ytick_3">
     <g id="line2d_19">
      <path d="M 42.620313 178.665959 
L 399.740313 178.665959 
" clip-path="url(#pba085debe3)" style="fill: none; stroke: #b0b0b0; stroke-width: 0.8; stroke-linecap: square"/>
     </g>
     <g id="line2d_20">
      <g>
       <use xlink:href="#m18ebcd77ee" x="42.620313" y="178.665959" style="stroke: #000000; stroke-width: 0.8"/>
      </g>
     </g>
     <g id="text_11">
      <!-- −1 -->
      <g transform="translate(20.878125 182.465177) scale(0.1 -0.1)">
       <use xlink:href="#DejaVuSans-2212"/>
       <use xlink:href="#DejaVuSans-31" x="83.789062"/>
      </g>
     </g>
    </g>
    <g id="ytick_4">
     <g id="line2d_21">
      <path d="M 42.620313 140.256 
L 399.740313 140.256 
" clip-path="url(#pba085debe3)" style="fill: none; stroke: #b0b0b0; stroke-width: 0.8; stroke-linecap: square"/>
     </g>
     <g id="line2d_22">
      <g>
       <use xlink:href="#m18ebcd77ee" x="42.620313" y="140.256" style="stroke: #000000; stroke-width: 0.8"/>
      </g>
     </g>
     <g id="text_12">
      <!-- 0 -->
      <g transform="translate(29.257813 144.055219) scale(0.1 -0.1)">
       <defs>
        <path id="DejaVuSans-30" d="M 2034 4250 
Q 1547 4250 1301 3770 
Q 1056 3291 1056 2328 
Q 1056 1369 1301 889 
Q 1547 409 2034 409 
Q 2525 409 2770 889 
Q 3016 1369 3016 2328 
Q 3016 3291 2770 3770 
Q 2525 4250 2034 4250 
z
M 2034 4750 
Q 2819 4750 3233 4129 
Q 3647 3509 3647 2328 
Q 3647 1150 3233 529 
Q 2819 -91 2034 -91 
Q 1250 -91 836 529 
Q 422 1150 422 2328 
Q 422 3509 836 4129 
Q 1250 4750 2034 4750 
z
" transform="scale(0.015625)"/>
       </defs>
       <use xlink:href="#DejaVuSans-30"/>
      </g>
     </g>
    </g>
    <g id="ytick_5">
     <g id="line2d_23">
      <path d="M 42.620313 101.846041 
L 399.740313 101.846041 
" clip-path="url(#pba085debe3)" style="fill: none; stroke: #b0b0b0; stroke-width: 0.8; stroke-linecap: square"/>
     </g>
     <g id="line2d_24">
      <g>
       <use xlink:href="#m18ebcd77ee" x="42.620313" y="101.846041" style="stroke: #000000; stroke-width: 0.8"/>
      </g>
     </g>
     <g id="text_13">
      <!-- 1 -->
      <g transform="translate(29.257813 105.64526) scale(0.1 -0.1)">
       <use xlink:href="#DejaVuSans-31"/>
      </g>
     </g>
    </g>
    <g id="ytick_6">
     <g id="line2d_25">
      <path d="M 42.620313 63.436083 
L 399.740313 63.436083 
" clip-path="url(#pba085debe3)" style="fill: none; stroke: #b0b0b0; stroke-width: 0.8; stroke-linecap: square"/>
     </g>
     <g id="line2d_26">
      <g>
       <use xlink:href="#m18ebcd77ee" x="42.620313" y="63.436083" style="stroke: #000000; stroke-width: 0.8"/>
      </g>
     </g>
     <g id="text_14">
      <!-- 2 -->
      <g transform="translate(29.257813 67.235301) scale(0.1 -0.1)">
       <use xlink:href="#DejaVuSans-32"/>
      </g>
     </g>
    </g>
    <g id="ytick_7">
     <g id="line2d_27">
      <path d="M 42.620313 25.026124 
L 399.740313 25.026124 
" clip-path="url(#pba085debe3)" style="fill: none; stroke: #b0b0b0; stroke-width: 0.8; stroke-linecap: square"/>
     </g>
     <g id="line2d_28">
      <g>
       <use xlink:href="#m18ebcd77ee" x="42.620313" y="25.026124" style="stroke: #000000; stroke-width: 0.8"/>
      </g>
     </g>
     <g id="text_15">
      <!-- 3 -->
      <g transform="translate(29.257813 28.825343) scale(0.1 -0.1)">
       <use xlink:href="#DejaVuSans-33"/>
      </g>
     </g>
    </g>
    <g id="text_16">
     <!-- $f(x)$ -->
     <g transform="translate(14.798438 148.906) rotate(-90) scale(0.1 -0.1)">
      <defs>
       <path id="DejaVuSans-Oblique-66" d="M 3059 4863 
L 2969 4384 
L 2419 4384 
Q 2106 4384 1964 4261 
Q 1822 4138 1753 3809 
L 1691 3500 
L 2638 3500 
L 2553 3053 
L 1606 3053 
L 1013 0 
L 434 0 
L 1031 3053 
L 481 3053 
L 563 3500 
L 1113 3500 
L 1159 3744 
Q 1278 4363 1576 4613 
Q 1875 4863 2516 4863 
L 3059 4863 
z
" transform="scale(0.015625)"/>
       <path id="DejaVuSans-28" d="M 1984 4856 
Q 1566 4138 1362 3434 
Q 1159 2731 1159 2009 
Q 1159 1288 1364 580 
Q 1569 -128 1984 -844 
L 1484 -844 
Q 1016 -109 783 600 
Q 550 1309 550 2009 
Q 550 2706 781 3412 
Q 1013 4119 1484 4856 
L 1984 4856 
z
" transform="scale(0.015625)"/>
       <path id="DejaVuSans-29" d="M 513 4856 
L 1013 4856 
Q 1481 4119 1714 3412 
Q 1947 2706 1947 2009 
Q 1947 1309 1714 600 
Q 1481 -109 1013 -844 
L 513 -844 
Q 928 -128 1133 580 
Q 1338 1288 1338 2009 
Q 1338 2731 1133 3434 
Q 928 4138 513 4856 
z
" transform="scale(0.015625)"/>
      </defs>
      <use xlink:href="#DejaVuSans-Oblique-66" transform="translate(0 0.015625)"/>
      <use xlink:href="#DejaVuSans-28" transform="translate(35.205078 0.015625)"/>
      <use xlink:href="#DejaVuSans-Oblique-78" transform="translate(74.21875 0.015625)"/>
      <use xlink:href="#DejaVuSans-29" transform="translate(133.398438 0.015625)"/>
     </g>
    </g>
   </g>
   <g id="line2d_29">
    <path d="M 42.620313 273.312 
L 46.821724 261.117971 
L 51.023136 249.571321 
L 55.224548 238.65645 
L 59.42596 228.357759 
L 63.627371 218.659647 
L 67.828783 209.546517 
L 72.030195 201.002767 
L 76.231607 193.012799 
L 80.433018 185.561013 
L 84.63443 178.631809 
L 88.835842 172.209589 
L 93.037254 166.278753 
L 97.238665 160.823701 
L 101.440077 155.828833 
L 105.641489 151.278551 
L 109.842901 147.157254 
L 114.044313 143.449344 
L 118.245724 140.139221 
L 122.447136 137.211284 
L 126.648548 134.649936 
L 130.84996 132.439576 
L 135.051371 130.564605 
L 139.252783 129.009423 
L 143.454195 127.758432 
L 147.655607 126.79603 
L 151.857018 126.10662 
L 156.05843 125.674601 
L 160.259842 125.484374 
L 164.461254 125.520339 
L 168.662665 125.766898 
L 172.864077 126.20845 
L 177.065489 126.829396 
L 182.667371 127.909419 
L 188.269254 129.243656 
L 193.871136 130.795131 
L 200.873489 132.983632 
L 209.276313 135.879936 
L 221.880548 140.516882 
L 235.885254 145.623305 
L 244.288077 148.432945 
L 251.29043 150.51745 
L 256.892313 151.964928 
L 262.494195 153.17668 
L 268.096077 154.115731 
L 272.297489 154.618814 
L 276.498901 154.932104 
L 280.700312 155.04 
L 284.901724 154.926904 
L 289.103136 154.577215 
L 293.304548 153.975335 
L 297.50596 153.105664 
L 301.707371 151.952602 
L 305.908783 150.500551 
L 310.110195 148.733909 
L 314.311607 146.637079 
L 318.513018 144.19446 
L 322.71443 141.390453 
L 326.915842 138.209459 
L 331.117254 134.635877 
L 335.318665 130.654109 
L 339.520077 126.248556 
L 343.721489 121.403617 
L 347.922901 116.103692 
L 352.124313 110.333184 
L 356.325724 104.076492 
L 360.527136 97.318016 
L 364.728548 90.042158 
L 368.92996 82.233317 
L 373.131371 73.875894 
L 377.332783 64.95429 
L 381.534195 55.452906 
L 385.735607 45.356141 
L 389.937018 34.648396 
L 394.13843 23.314073 
L 398.339842 11.33757 
L 399.740313 7.2 
L 399.740313 7.2 
" clip-path="url(#pba085debe3)" style="fill: none; stroke: #008000; stroke-width: 1.5; stroke-linecap: square"/>
   </g>
   <g id="patch_3">
    <path d="M 42.620313 273.312 
L 42.620313 7.2 
" style="fill: none; stroke: #000000; stroke-width: 0.8; stroke-linejoin: miter; stroke-linecap: square"/>
   </g>
   <g id="patch_4">
    <path d="M 399.740313 273.312 
L 399.740313 7.2 
" style="fill: none; stroke: #000000; stroke-width: 0.8; stroke-linejoin: miter; stroke-linecap: square"/>
   </g>
   <g id="patch_5">
    <path d="M 42.620313 273.312 
L 399.740313 273.312 
" style="fill: none; stroke: #000000; stroke-width: 0.8; stroke-linejoin: miter; stroke-linecap: square"/>
   </g>
   <g id="patch_6">
    <path d="M 42.620313 7.2 
L 399.740313 7.2 
" style="fill: none; stroke: #000000; stroke-width: 0.8; stroke-linejoin: miter; stroke-linecap: square"/>
   </g>
   <g id="legend_1">
    <g id="patch_7">
     <path d="M 49.620313 30.7 
L 201.520313 30.7 
Q 203.520313 30.7 203.520313 28.7 
L 203.520313 14.2 
Q 203.520313 12.2 201.520313 12.2 
L 49.620313 12.2 
Q 47.620313 12.2 47.620313 14.2 
L 47.620313 28.7 
Q 47.620313 30.7 49.620313 30.7 
L 49.620313 30.7 
z
" style="fill: none; opacity: 0"/>
    </g>
    <g id="line2d_30">
     <path d="M 51.620313 21.120313 
L 61.620313 21.120313 
L 71.620313 21.120313 
" style="fill: none; stroke: #008000; stroke-width: 1.5; stroke-linecap: square"/>
    </g>
    <g id="text_17">
     <!-- $f(x) = x^3 - 6x^2 + 11x - 6$ -->
     <g transform="translate(79.620313 24.620313) scale(0.1 -0.1)">
      <defs>
       <path id="DejaVuSans-3d" d="M 678 2906 
L 4684 2906 
L 4684 2381 
L 678 2381 
L 678 2906 
z
M 678 1631 
L 4684 1631 
L 4684 1100 
L 678 1100 
L 678 1631 
z
" transform="scale(0.015625)"/>
       <path id="DejaVuSans-36" d="M 2113 2584 
Q 1688 2584 1439 2293 
Q 1191 2003 1191 1497 
Q 1191 994 1439 701 
Q 1688 409 2113 409 
Q 2538 409 2786 701 
Q 3034 994 3034 1497 
Q 3034 2003 2786 2293 
Q 2538 2584 2113 2584 
z
M 3366 4563 
L 3366 3988 
Q 3128 4100 2886 4159 
Q 2644 4219 2406 4219 
Q 1781 4219 1451 3797 
Q 1122 3375 1075 2522 
Q 1259 2794 1537 2939 
Q 1816 3084 2150 3084 
Q 2853 3084 3261 2657 
Q 3669 2231 3669 1497 
Q 3669 778 3244 343 
Q 2819 -91 2113 -91 
Q 1303 -91 875 529 
Q 447 1150 447 2328 
Q 447 3434 972 4092 
Q 1497 4750 2381 4750 
Q 2619 4750 2861 4703 
Q 3103 4656 3366 4563 
z
" transform="scale(0.015625)"/>
      </defs>
      <use xlink:href="#DejaVuSans-Oblique-66" transform="translate(0 0.765625)"/>
      <use xlink:href="#DejaVuSans-28" transform="translate(35.205078 0.765625)"/>
      <use xlink:href="#DejaVuSans-Oblique-78" transform="translate(74.21875 0.765625)"/>
      <use xlink:href="#DejaVuSans-29" transform="translate(133.398438 0.765625)"/>
      <use xlink:href="#DejaVuSans-3d" transform="translate(191.894531 0.765625)"/>
      <use xlink:href="#DejaVuSans-Oblique-78" transform="translate(295.166016 0.765625)"/>
      <use xlink:href="#DejaVuSans-33" transform="translate(358.811849 39.046875) scale(0.7)"/>
      <use xlink:href="#DejaVuSans-2212" transform="translate(425.564779 0.765625)"/>
      <use xlink:href="#DejaVuSans-36" transform="translate(528.836263 0.765625)"/>
      <use xlink:href="#DejaVuSans-Oblique-78" transform="translate(592.45931 0.765625)"/>
      <use xlink:href="#DejaVuSans-32" transform="translate(656.105143 39.046875) scale(0.7)"/>
      <use xlink:href="#DejaVuSans-2b" transform="translate(722.858073 0.765625)"/>
      <use xlink:href="#DejaVuSans-31" transform="translate(826.129557 0.765625)"/>
      <use xlink:href="#DejaVuSans-31" transform="translate(889.752604 0.765625)"/>
      <use xlink:href="#DejaVuSans-Oblique-78" transform="translate(953.375651 0.765625)"/>
      <use xlink:href="#DejaVuSans-2212" transform="translate(1032.03776 0.765625)"/>
      <use xlink:href="#DejaVuSans-36" transform="translate(1135.309245 0.765625)"/>
     </g>
    </g>
   </g>
  </g>
 </g>
 <defs>
  <clipPath id="pba085debe3">
   <rect x="42.620313" y="7.2" width="357.12" height="266.112"/>
  </clipPath>
 </defs>
</svg>
