<svg xmlns="http://www.w3.org/2000/svg" xmlns:xlink="http://www.w3.org/1999/xlink" aria-hidden="true" focusable="false" width="0.62em" height="1em" style="-ms-transform: rotate(360deg); -webkit-transform: rotate(360deg); transform: rotate(360deg);" preserveAspectRatio="xMidYMid meet" viewBox="0 0 256 416"><defs><linearGradient x1="0%" y1="50%" x2="100%" y2="50%" id="IconifyId-176d20aba3f-f6a66b-8"><stop stop-color="#4F4F4F" offset="0%"/><stop offset="100%"/></linearGradient><linearGradient x1="0%" y1="50%" x2="100%" y2="50%" id="IconifyId-176d20aba3f-f6a66b-9"><stop stop-color="#C40000" offset="0%"/><stop stop-color="red" offset="100%"/></linearGradient></defs><path d="M0 288v-32c0-5.394 116.377-14.428 192.2-32c36.628 8.49 63.8 18.969 63.8 32v32c0 13.024-27.172 23.51-63.8 32C116.376 302.425 0 293.39 0 288" fill="url(#IconifyId-176d20aba3f-f6a66b-8)" transform="matrix(1 0 0 -1 0 544)"/><path d="M0 160v-32c0-5.394 116.377-14.428 192.2-32c36.628 8.49 63.8 18.969 63.8 32v32c0 13.024-27.172 23.51-63.8 32C116.376 174.425 0 165.39 0 160" fill="url(#IconifyId-176d20aba3f-f6a66b-8)" transform="matrix(1 0 0 -1 0 288)"/><path d="M0 224v-96c0 8 256 24 256 64v96c0-40-256-56-256-64" fill="url(#IconifyId-176d20aba3f-f6a66b-9)" transform="matrix(1 0 0 -1 0 416)"/><path d="M0 96V0c0 8 256 24 256 64v96c0-40-256-56-256-64" fill="url(#IconifyId-176d20aba3f-f6a66b-9)" transform="matrix(1 0 0 -1 0 160)"/><path d="M0 352v-96c0 8 256 24 256 64v96c0-40-256-56-256-64" fill="url(#IconifyId-176d20aba3f-f6a66b-9)" transform="matrix(1 0 0 -1 0 672)"/></svg>